# xmcd CD database file
#
# Track frame offsets:
#	183
#	40728
#	62915
#	89488
#	119280
#	138255
#	163198
#	188305
#	209268
#	246565
#	270593
#
# Disc length: 4148 seconds
#
# Revision: 0
# Processed by: cddbd v1.5.1PL2 Copyright (c) Steve Scherf et al.
# Submitted via: CDex 1.51
#
DISCID=9b10320b
DTITLE=Sonny Rollins Quintet - Thad Jones Quintet and Sextet - Sonny Rollins Quintet - Thad Jones Quintet and Sextet
DYEAR=1956
DGENRE=Jazz
TTITLE0=Sonny Rollins Quintet: Sonnymoon For Two
TTITLE1=Sonny Rollins Quintet: Like Someone In Love
TTITLE2=Sonny Rollins Quintet: Theme from Tchaikovsky's "Symphonie Pathetique"
TTITLE3=Thad Jones Quintet and Sextet: I Got It, Thad and That Ain't Bad
TTITLE4=Thad Jones Quintet and Sextet: Lust For Life
TTITLE5=Thad Jones Quintet and Sextet: Jumpin' For Jane
TTITLE6=Thad Jones Quintet and Sextet: Whisper Not
TTITLE7=Thad Jones Quintet and Sextet: Mad Thad
TTITLE8=Thad Jones Quintet and Sextet: Bird Song
TTITLE9=Thad Jones Quintet and Sextet: Cat Meets Chicks
TTITLE10=Thad Jones Quintet and Sextet: Quiet Sip
EXTD=YEAR: 1956
EXTT0=
EXTT1=
EXTT2=
EXTT3=
EXTT4=
EXTT5=
EXTT6=
EXTT7=
EXTT8=
EXTT9=
EXTT10=
PLAYORDER=
